<?xml version="1.0" encoding="UTF-8" standalone="no"?>
<svg
   width="460.69403"
   height="71.910156"
   viewBox="0 0 460.69403 71.910157"
   version="1.1"
   id="svg17"
   sodipodi:docname="logo.svg"
   inkscape:version="1.2.2 (b0a8486541, 2022-12-01)"
   xmlns:inkscape="http://www.inkscape.org/namespaces/inkscape"
   xmlns:sodipodi="http://sodipodi.sourceforge.net/DTD/sodipodi-0.dtd"
   xmlns="http://www.w3.org/2000/svg"
   xmlns:svg="http://www.w3.org/2000/svg">
  <sodipodi:namedview
     id="namedview14"
     pagecolor="#ffffff"
     bordercolor="#000000"
     borderopacity="0.25"
     inkscape:showpageshadow="2"
     inkscape:pageopacity="0.0"
     inkscape:pagecheckerboard="0"
     inkscape:deskcolor="#d1d1d1"
     showgrid="false"
     inkscape:zoom="2.9043137"
     inkscape:cx="230.86349"
     inkscape:cy="36.325277"
     inkscape:window-width="2044"
     inkscape:window-height="1240"
     inkscape:window-x="0"
     inkscape:window-y="0"
     inkscape:window-maximized="1"
     inkscape:current-layer="layer1" />
  <defs
     id="defs19" />
  <g
     id="layer1"
     transform="translate(510.04025,-171.56295)">
    <g
       id="g867"
       transform="translate(-531.84069,-7.2944184)"
       style="fill:#000000">
      <g
         id="g327">
        <path
           id="path1360"
           style="font-size:70.4165px;line-height:1.25;font-family:'The Juke Box';-inkscape-font-specification:'The Juke Box';fill:#ffffff;fill-opacity:1;stroke-width:0;stroke-dasharray:none"
           d="m 42.107289,90.113229 c -0.761512,0 -1.442511,0.202281 -2.139429,0.654079 -0.01539,0.01014 -0.03174,0.02001 -0.04759,0.0294 -0.714799,0.417052 -1.356822,1.000629 -1.941474,1.782181 -0.543447,0.778583 -1.000626,1.722667 -1.360935,2.847816 -0.296303,1.037947 -0.443573,2.126249 -0.466335,3.263046 -0.05829,0.0084 -0.118752,0.01547 -0.177016,0.02388 0,1.297079 20.726374,52.693989 21.044056,53.809019 0.358704,1.0661 0.812892,1.98605 1.360935,2.77065 0.584231,0.78112 1.239192,1.39808 1.966218,1.87405 0.692215,0.39926 1.385621,0.59161 2.162269,0.59161 H 458.56299 c 0.77666,0 1.47255,-0.19271 2.16417,-0.59161 0.72343,-0.474 1.35343,-1.08126 1.8977,-1.85751 0.006,-0.009 0.0143,-0.0186 0.0209,-0.0276 0.5817,-0.78081 1.03223,-1.69006 1.35142,-2.75228 0.002,-0.006 0.004,-0.0106 0.006,-0.0165 0.35433,-1.11175 20.91057,-52.2145 20.92985,-53.55363 5.7e-4,-5e-6 0.007,4e-6 0.008,0 0,-0.0057 -0.002,-0.01086 -0.002,-0.01654 -0.002,-1.226172 -0.17858,-2.388086 -0.53296,-3.500057 -0.003,-0.01037 -0.008,-0.02078 -0.0114,-0.03123 -0.32093,-1.118846 -0.7728,-2.052348 -1.34761,-2.82393 -0.007,-0.009 -0.0126,-0.01651 -0.019,-0.02572 -0.54411,-0.776027 -1.16241,-1.349964 -1.87486,-1.765645 -0.0159,-0.0094 -0.0322,-0.01926 -0.0476,-0.0294 -0.69693,-0.451801 -1.37791,-0.654079 -2.13943,-0.654079 -146.97009,-10e-7 -301.76604,10e-6 -436.858311,0 z"
           transform="matrix(1.0261211,0,0,1.0630406,-15.113761,83.063352)" />
        <g
           id="g5553"
           transform="translate(-8.388496,90.875736)">
          <g
             id="g318">
            <g
               aria-label="[                                                  ]"
               transform="scale(0.83735024,1.1942434)"
               id="text5925"
               style="font-size:70.4165px;line-height:1.25;font-family:'The Juke Box';-inkscape-font-specification:'The Juke Box';stroke-width:1.76041">
              <path
                 d="m 110.35187,103.77844 q 0,1.76041 -0.70416,3.30957 -0.63375,1.47875 -1.83083,2.60541 -1.12667,1.12667 -2.67583,1.83083 -1.54916,0.63375 -3.30957,0.63375 H 62.53907 q -1.760412,0 -3.309575,-0.63375 -1.549163,-0.70416 -2.746243,-1.83083 -1.126664,-1.12666 -1.830829,-2.60541 -0.633749,-1.54916 -0.633749,-3.30957 0,-1.76041 0.633749,-3.23916 0.704165,-1.549163 1.830829,-2.675827 1.19708,-1.126664 2.746243,-1.760412 1.549163,-0.704165 3.309575,-0.704165 h 39.29241 q 1.76041,0 3.30957,0.704165 1.54916,0.633748 2.67583,1.760412 1.19708,1.126664 1.83083,2.675827 0.70416,1.47875 0.70416,3.23916 z M 98.099401,82.864739 q 0,1.760413 -0.704165,3.309576 -0.633748,1.478746 -1.830829,2.675826 -1.126664,1.126664 -2.675827,1.830829 -1.549163,0.633749 -3.309575,0.633749 H 50.2866 q -1.760412,0 -3.309575,-0.633749 -1.549163,-0.704165 -2.746244,-1.830829 -1.126664,-1.19708 -1.830829,-2.675826 -0.633748,-1.549163 -0.633748,-3.309576 0,-1.689996 0.633748,-3.239159 0.704165,-1.549163 1.830829,-2.675826 1.197081,-1.126664 2.746244,-1.760413 1.549163,-0.704165 3.309575,-0.704165 h 97.59726 V 78.21725 H 96.620655 q 0.704165,0.985831 1.056247,2.182912 0.422499,1.19708 0.422499,2.464577 z m 24.364109,41.827401 q 0,1.26749 -0.4225,2.46458 -0.35208,1.19708 -1.05625,2.18291 h 26.8991 v 3.73207 H 74.650708 q -1.760413,0 -3.309576,-0.63375 -1.549162,-0.70416 -2.746243,-1.83083 -1.126664,-1.12666 -1.830829,-2.60541 -0.633748,-1.54916 -0.633748,-3.30957 0,-1.76041 0.633748,-3.23916 0.704165,-1.54916 1.830829,-2.67583 1.197081,-1.19708 2.746243,-1.83083 1.549163,-0.70416 3.309576,-0.70416 h 39.292402 q 1.76042,0 3.30958,0.70416 1.54916,0.63375 2.67582,1.83083 1.19709,1.12667 1.83083,2.67583 0.70417,1.47875 0.70417,3.23916 z"
                 id="path457" />
              <path
                 d="m 143.58851,133.0717 v -3.73207 h 8.23873 v 3.73207 z m 0,-54.85445 v -3.732074 h 8.23873 v 3.732074 z"
                 id="path459" />
              <path
                 d="m 150.27803,133.0717 v -3.73207 h 8.23873 v 3.73207 z m 0,-54.85445 v -3.732074 h 8.23873 v 3.732074 z"
                 id="path461" />
              <path
                 d="m 156.96754,133.0717 v -3.73207 h 8.23873 v 3.73207 z m 0,-54.85445 v -3.732074 h 8.23873 v 3.732074 z"
                 id="path463" />
              <path
                 d="m 163.65707,133.0717 v -3.73207 h 8.23873 v 3.73207 z m 0,-54.85445 v -3.732074 h 8.23873 v 3.732074 z"
                 id="path465" />
              <path
                 d="m 170.34659,133.0717 v -3.73207 h 8.23873 v 3.73207 z m 0,-54.85445 v -3.732074 h 8.23873 v 3.732074 z"
                 id="path467" />
              <path
                 d="m 177.0361,133.0717 v -3.73207 h 8.23873 v 3.73207 z m 0,-54.85445 v -3.732074 h 8.23873 v 3.732074 z"
                 id="path469" />
              <path
                 d="m 183.72562,133.0717 v -3.73207 h 8.23873 v 3.73207 z m 0,-54.85445 v -3.732074 h 8.23873 v 3.732074 z"
                 id="path471" />
              <path
                 d="m 190.41515,133.0717 v -3.73207 h 8.23873 v 3.73207 z m 0,-54.85445 v -3.732074 h 8.23873 v 3.732074 z"
                 id="path473" />
              <path
                 d="m 197.10466,133.0717 v -3.73207 h 8.23873 v 3.73207 z m 0,-54.85445 v -3.732074 h 8.23873 v 3.732074 z"
                 id="path475" />
              <path
                 d="m 203.79417,133.0717 v -3.73207 h 8.23873 v 3.73207 z m 0,-54.85445 v -3.732074 h 8.23873 v 3.732074 z"
                 id="path477" />
              <path
                 d="m 210.4837,133.0717 v -3.73207 h 8.23873 v 3.73207 z m 0,-54.85445 v -3.732074 h 8.23873 v 3.732074 z"
                 id="path479" />
              <path
                 d="m 217.17322,133.0717 v -3.73207 h 8.23873 v 3.73207 z m 0,-54.85445 v -3.732074 h 8.23873 v 3.732074 z"
                 id="path481" />
              <path
                 d="m 223.86273,133.0717 v -3.73207 h 8.23873 v 3.73207 z m 0,-54.85445 v -3.732074 h 8.23873 v 3.732074 z"
                 id="path483" />
              <path
                 d="m 230.55226,133.0717 v -3.73207 h 8.23873 v 3.73207 z m 0,-54.85445 v -3.732074 h 8.23873 v 3.732074 z"
                 id="path485" />
              <path
                 d="m 237.24178,133.0717 v -3.73207 h 8.23873 v 3.73207 z m 0,-54.85445 v -3.732074 h 8.23873 v 3.732074 z"
                 id="path487" />
              <path
                 d="m 243.93129,133.0717 v -3.73207 h 8.23873 v 3.73207 z m 0,-54.85445 v -3.732074 h 8.23873 v 3.732074 z"
                 id="path489" />
              <path
                 d="m 250.6208,133.0717 v -3.73207 h 8.23873 v 3.73207 z m 0,-54.85445 v -3.732074 h 8.23873 v 3.732074 z"
                 id="path491" />
              <path
                 d="m 257.31033,133.0717 v -3.73207 h 8.23873 v 3.73207 z m 0,-54.85445 v -3.732074 h 8.23873 v 3.732074 z"
                 id="path493" />
              <path
                 d="m 263.99985,133.0717 v -3.73207 h 8.23873 v 3.73207 z m 0,-54.85445 v -3.732074 h 8.23873 v 3.732074 z"
                 id="path495" />
              <path
                 d="m 270.68936,133.0717 v -3.73207 h 8.23873 v 3.73207 z m 0,-54.85445 v -3.732074 h 8.23873 v 3.732074 z"
                 id="path497" />
              <path
                 d="m 277.37889,133.0717 v -3.73207 h 8.23873 v 3.73207 z m 0,-54.85445 v -3.732074 h 8.23873 v 3.732074 z"
                 id="path499" />
              <path
                 d="m 284.0684,133.0717 v -3.73207 h 8.23873 v 3.73207 z m 0,-54.85445 v -3.732074 h 8.23873 v 3.732074 z"
                 id="path501" />
              <path
                 d="m 290.75792,133.0717 v -3.73207 h 8.23873 v 3.73207 z m 0,-54.85445 v -3.732074 h 8.23873 v 3.732074 z"
                 id="path503" />
              <path
                 d="m 297.44743,133.0717 v -3.73207 h 8.23873 v 3.73207 z m 0,-54.85445 v -3.732074 h 8.23873 v 3.732074 z"
                 id="path505" />
              <path
                 d="m 304.13695,133.0717 v -3.73207 h 8.23873 v 3.73207 z m 0,-54.85445 v -3.732074 h 8.23873 v 3.732074 z"
                 id="path507" />
              <path
                 d="m 310.82649,133.0717 v -3.73207 h 8.23873 v 3.73207 z m 0,-54.85445 v -3.732074 h 8.23873 v 3.732074 z"
                 id="path509" />
              <path
                 d="m 317.51601,133.0717 v -3.73207 h 8.23873 v 3.73207 z m 0,-54.85445 v -3.732074 h 8.23873 v 3.732074 z"
                 id="path511" />
              <path
                 d="m 324.20552,133.0717 v -3.73207 h 8.23873 v 3.73207 z m 0,-54.85445 v -3.732074 h 8.23873 v 3.732074 z"
                 id="path513" />
              <path
                 d="m 330.89503,133.0717 v -3.73207 h 8.23873 v 3.73207 z m 0,-54.85445 v -3.732074 h 8.23873 v 3.732074 z"
                 id="path515" />
              <path
                 d="m 337.58455,133.0717 v -3.73207 h 8.23873 v 3.73207 z m 0,-54.85445 v -3.732074 h 8.23873 v 3.732074 z"
                 id="path517" />
              <path
                 d="m 344.27406,133.0717 v -3.73207 h 8.23873 v 3.73207 z m 0,-54.85445 v -3.732074 h 8.23873 v 3.732074 z"
                 id="path519" />
              <path
                 d="m 350.96361,133.0717 v -3.73207 h 8.23873 v 3.73207 z m 0,-54.85445 v -3.732074 h 8.23873 v 3.732074 z"
                 id="path521" />
              <path
                 d="m 357.65312,133.0717 v -3.73207 h 8.23873 v 3.73207 z m 0,-54.85445 v -3.732074 h 8.23873 v 3.732074 z"
                 id="path523" />
              <path
                 d="m 364.34264,133.0717 v -3.73207 h 8.23873 v 3.73207 z m 0,-54.85445 v -3.732074 h 8.23873 v 3.732074 z"
                 id="path525" />
              <path
                 d="m 371.03215,133.0717 v -3.73207 h 8.23873 v 3.73207 z m 0,-54.85445 v -3.732074 h 8.23873 v 3.732074 z"
                 id="path527" />
              <path
                 d="m 377.72166,133.0717 v -3.73207 h 8.23873 v 3.73207 z m 0,-54.85445 v -3.732074 h 8.23873 v 3.732074 z"
                 id="path529" />
              <path
                 d="m 384.41118,133.0717 v -3.73207 h 8.23873 v 3.73207 z m 0,-54.85445 v -3.732074 h 8.23873 v 3.732074 z"
                 id="path531" />
              <path
                 d="m 391.10072,133.0717 v -3.73207 h 8.23873 v 3.73207 z m 0,-54.85445 v -3.732074 h 8.23873 v 3.732074 z"
                 id="path533" />
              <path
                 d="m 397.79024,133.0717 v -3.73207 h 8.23873 v 3.73207 z m 0,-54.85445 v -3.732074 h 8.23873 v 3.732074 z"
                 id="path535" />
              <path
                 d="m 404.47975,133.0717 v -3.73207 h 8.23873 v 3.73207 z m 0,-54.85445 v -3.732074 h 8.23873 v 3.732074 z"
                 id="path537" />
              <path
                 d="m 411.16927,133.0717 v -3.73207 h 8.23873 v 3.73207 z m 0,-54.85445 v -3.732074 h 8.23873 v 3.732074 z"
                 id="path539" />
              <path
                 d="m 417.85878,133.0717 v -3.73207 h 8.23873 v 3.73207 z m 0,-54.85445 v -3.732074 h 8.23873 v 3.732074 z"
                 id="path541" />
              <path
                 d="m 424.54829,133.0717 v -3.73207 h 8.23873 v 3.73207 z m 0,-54.85445 v -3.732074 h 8.23873 v 3.732074 z"
                 id="path543" />
              <path
                 d="m 431.23781,133.0717 v -3.73207 h 8.23873 v 3.73207 z m 0,-54.85445 v -3.732074 h 8.23873 v 3.732074 z"
                 id="path545" />
              <path
                 d="m 437.92735,133.0717 v -3.73207 h 8.23873 v 3.73207 z m 0,-54.85445 v -3.732074 h 8.23873 v 3.732074 z"
                 id="path547" />
              <path
                 d="m 444.61687,133.0717 v -3.73207 h 8.23873 v 3.73207 z m 0,-54.85445 v -3.732074 h 8.23873 v 3.732074 z"
                 id="path549" />
              <path
                 d="m 451.30638,133.0717 v -3.73207 h 8.23873 v 3.73207 z m 0,-54.85445 v -3.732074 h 8.23873 v 3.732074 z"
                 id="path551" />
              <path
                 d="m 457.9959,133.0717 v -3.73207 h 8.23873 v 3.73207 z m 0,-54.85445 v -3.732074 h 8.23873 v 3.732074 z"
                 id="path553" />
              <path
                 d="m 464.68541,133.0717 v -3.73207 h 8.23873 v 3.73207 z m 0,-54.85445 v -3.732074 h 8.23873 v 3.732074 z"
                 id="path555" />
              <path
                 d="m 471.37492,133.0717 v -3.73207 h 8.23873 v 3.73207 z m 0,-54.85445 v -3.732074 h 8.23873 v 3.732074 z"
                 id="path557" />
              <path
                 d="m 511.9348,103.77844 q 0,-1.76041 0.63375,-3.23916 0.70417,-1.549163 1.83083,-2.675827 1.19708,-1.126664 2.74624,-1.760412 1.54917,-0.704165 3.30958,-0.704165 h 39.2924 q 1.76042,0 3.30958,0.704165 1.54916,0.633748 2.67583,1.760412 1.19708,1.126664 1.83082,2.675827 0.70417,1.47875 0.70417,3.23916 0,1.76041 -0.70417,3.30957 -0.63374,1.47875 -1.83082,2.60541 -1.12667,1.12667 -2.67583,1.83083 -1.54916,0.63375 -3.30958,0.63375 h -39.2924 q -1.76041,0 -3.30958,-0.63375 -1.54916,-0.70416 -2.74624,-1.83083 -1.12666,-1.12666 -1.83083,-2.60541 -0.63375,-1.54916 -0.63375,-3.30957 z m 12.25247,-20.913701 q 0,-1.267497 0.35209,-2.464577 0.42249,-1.197081 1.12666,-2.182912 h -51.26321 v -3.732074 h 97.59726 q 1.76042,0 3.30958,0.704165 1.54916,0.633749 2.67583,1.760413 1.19708,1.126663 1.83083,2.675826 0.70416,1.549163 0.70416,3.239159 0,1.760413 -0.70416,3.309576 -0.63375,1.478746 -1.83083,2.675826 -1.12667,1.126664 -2.67583,1.830829 -1.54916,0.633749 -3.30958,0.633749 h -39.2924 q -1.76041,0 -3.30958,-0.633749 -1.54916,-0.704165 -2.74624,-1.830829 -1.12666,-1.19708 -1.83083,-2.675826 -0.63375,-1.549163 -0.63375,-3.309576 z m -24.3641,41.827401 q 0,-1.76041 0.63374,-3.23916 0.70417,-1.54916 1.83083,-2.67583 1.19708,-1.19708 2.74625,-1.83083 1.54916,-0.70416 3.30957,-0.70416 h 39.29241 q 1.76041,0 3.30957,0.70416 1.54916,0.63375 2.67583,1.83083 1.19708,1.12667 1.83083,2.67583 0.70416,1.47875 0.70416,3.23916 0,1.76041 -0.70416,3.30957 -0.63375,1.47875 -1.83083,2.60541 -1.12667,1.12667 -2.67583,1.83083 -1.54916,0.63375 -3.30957,0.63375 h -73.23316 v -3.73207 h 26.8991 q -0.70416,-0.98583 -1.12666,-2.18291 -0.35208,-1.19709 -0.35208,-2.46458 z"
                 id="path559" />
            </g>
          </g>
          <g
             aria-label="SIDER"
             transform="scale(0.79738922,1.2540927)"
             id="text19797"
             style="font-size:52.4979px;line-height:1.25;font-family:'Burn The Witch';-inkscape-font-specification:'Burn The Witch';stroke-width:1.31245">
            <path
               d="m 181.81579,106.24278 -0.73497,3.72735 h -10.28959 l -1.15496,5.77477 h 66.14736 l 1.15495,-5.77477 h -10.13209 l 1.52243,-7.92718 q 0.41999,-2.152412 -0.89246,-3.569855 -1.10246,-1.364945 -3.30737,-1.679933 l -7.92718,-1.207451 q -1.78493,-0.26249 -5.51228,-0.892465 -1.73243,-0.262489 -3.51736,-0.524979 -2.67739,-0.472481 -2.93988,-0.99746 -0.20999,-0.524979 0,-1.679932 0.41998,-1.889925 1.78493,-2.362406 0.52498,-0.157493 3.04488,-0.157493 2.67739,0 2.25741,1.889924 -0.105,0.524979 -0.36749,1.259949 h 19.42422 l 0.68248,-3.72735 q 0.36748,-2.152414 -0.83997,-3.674853 -1.20745,-1.574937 -3.35987,-1.574937 h -1.31244 v -0.0525 h -28.34887 v 0.0525 h -5.51228 q -2.15241,0 -4.04234,1.574937 -1.83742,1.522439 -2.25741,3.674853 -1.36494,6.667233 -1.73243,8.97714 -0.26249,1.679933 0.68248,2.729891 0.73497,0.68247 2.4149,1.36495 0.57748,0.20999 1.52244,0.52497 0.10499,0.0525 7.5597,1.31245 1.83742,0.26249 5.56477,0.89247 1.78493,0.26249 3.46486,0.52497 2.72989,0.47249 2.93989,0.99747 0.26249,0.52497 0.0525,1.62743 -0.41998,1.94242 -1.83742,2.4149 -0.52498,0.1575 -3.04488,0.1575 -2.6249,0 -2.20491,-2.04742 0.10499,-0.57748 0.47248,-1.62744 z"
               style="font-family:Remarcle;-inkscape-font-specification:Remarcle"
               id="path399" />
            <path
               d="m 281.87682,83.196207 -1.15495,5.774769 h -12.28451 l -4.14734,20.999154 h 26.40645 l -1.15496,5.77477 h -56.17275 l 1.15496,-5.77477 h 10.34208 l 4.14733,-20.999154 h -10.28958 l 1.15495,-5.774769 z"
               style="font-family:Remarcle;-inkscape-font-specification:Remarcle"
               id="path401" />
            <path
               d="m 320.83026,109.23516 q 0.78747,-0.68247 1.04996,-2.4149 l 2.99238,-15.014398 q 0.47248,-1.784929 -0.0525,-2.414903 -0.41998,-0.472481 -1.83743,-0.419983 h -4.40982 l -4.14733,20.999154 h 3.41236 q 2.20491,0.105 2.99238,-0.73497 z m 19.8967,-26.091451 q 2.15242,0 3.35987,1.574937 1.25995,1.522439 0.83997,3.674853 l -4.25233,21.576631 h 10.65707 l -1.15495,5.77477 h -66.67233 l 1.15495,-5.77477 h 10.34209 l 4.14733,-20.999154 h -10.28959 l 1.15495,-5.774769 q 2.5724,0 7.76969,-0.0525 5.1973,0 7.76969,0 z"
               style="font-family:Remarcle;-inkscape-font-specification:Remarcle"
               id="path403" />
            <path
               d="m 408.8167,83.196207 -1.46994,7.612195 h -19.47672 q 0.10499,-1.837426 -1.41745,-1.837426 h -5.09229 l -1.57494,7.769688 h 20.73667 l -3.30737,5.879766 H 378.6829 l -1.46994,7.3497 h 4.88231 q 1.73243,0 2.3099,-1.99492 h 19.47672 l -0.41998,1.99492 h 10.1321 l -1.15496,5.77477 H 346.2917 l 1.15495,-5.77477 h 10.34209 l 4.14733,-20.999154 h -10.28958 l 1.15495,-5.774769 h 56.01526 v 0.0525 z"
               style="font-family:Remarcle;-inkscape-font-specification:Remarcle"
               id="path405" />
            <path
               d="m 450.50003,94.903238 0.73497,-3.884844 q 0.36749,-2.099916 -1.57493,-2.047418 h -4.88231 l -1.57494,7.874684 h 5.1973 q 1.67993,0 2.09991,-1.942422 z m 12.5995,7.717192 q 0,0 -5.1448,-0.0525 4.9873,1.46994 8.92465,7.4022 h 16.95682 l -1.15496,5.77477 h -33.17867 q -1.73243,0 -2.4674,-1.36494 -1.52244,-2.67739 -4.9348,-11.75953 l -1.46994,7.3497 h 2.25741 l -1.15496,5.77477 h -32.02371 l 1.15495,-5.77477 h 10.34209 l 4.14733,-20.999154 h -10.28959 l 1.15496,-5.774769 50.71296,-0.0525 q 2.15242,0 3.35987,1.574937 1.25995,1.522439 0.83997,3.674853 -1.41745,7.24471 -1.73243,8.97714 -0.41999,2.204912 -2.25741,3.727351 -1.83743,1.52244 -4.04234,1.52244 z"
               style="font-family:Remarcle;-inkscape-font-specification:Remarcle"
               id="path407" />
          </g>
        </g>
      </g>
    </g>
  </g>
</svg>
