<?xml version="1.0" encoding="UTF-8" standalone="no"?>
<svg
   width="460.69403"
   height="71.910156"
   viewBox="0 0 460.69403 71.910157"
   version="1.1"
   id="svg17"
   xmlns="http://www.w3.org/2000/svg"
   xmlns:svg="http://www.w3.org/2000/svg">
  <defs
     id="defs19" />
  <g
     id="layer1"
     transform="translate(510.04025,-171.56295)">
    <g
       id="g867"
       transform="translate(-531.84069,-7.2944184)"
       style="fill:#000000">
      <g
         id="g327">
        <path
           id="path1360"
           style="font-size:70.4165px;line-height:1.25;font-family:'The Juke Box';-inkscape-font-specification:'The Juke Box';fill:#ffffff;fill-opacity:1;stroke-width:0;stroke-dasharray:none"
           d="m 42.107289,90.113229 c -0.761512,0 -1.442511,0.202281 -2.139429,0.654079 -0.01539,0.01014 -0.03174,0.02001 -0.04759,0.0294 -0.714799,0.417052 -1.356822,1.000629 -1.941474,1.782181 -0.543447,0.778583 -1.000626,1.722667 -1.360935,2.847816 -0.296303,1.037947 -0.443573,2.126249 -0.466335,3.263046 -0.05829,0.0084 -0.118752,0.01547 -0.177016,0.02388 0,1.297079 20.726374,52.693989 21.044056,53.809019 0.358704,1.0661 0.812892,1.98605 1.360935,2.77065 0.584231,0.78112 1.239192,1.39808 1.966218,1.87405 0.692215,0.39926 1.385621,0.59161 2.162269,0.59161 H 458.56299 c 0.77666,0 1.47255,-0.19271 2.16417,-0.59161 0.72343,-0.474 1.35343,-1.08126 1.8977,-1.85751 0.006,-0.009 0.0143,-0.0186 0.0209,-0.0276 0.5817,-0.78081 1.03223,-1.69006 1.35142,-2.75228 0.002,-0.006 0.004,-0.0106 0.006,-0.0165 0.35433,-1.11175 20.91057,-52.2145 20.92985,-53.55363 5.7e-4,-5e-6 0.007,4e-6 0.008,0 0,-0.0057 -0.002,-0.01086 -0.002,-0.01654 -0.002,-1.226172 -0.17858,-2.388086 -0.53296,-3.500057 -0.003,-0.01037 -0.008,-0.02078 -0.0114,-0.03123 -0.32093,-1.118846 -0.7728,-2.052348 -1.34761,-2.82393 -0.007,-0.009 -0.0126,-0.01651 -0.019,-0.02572 -0.54411,-0.776027 -1.16241,-1.349964 -1.87486,-1.765645 -0.0159,-0.0094 -0.0322,-0.01926 -0.0476,-0.0294 -0.69693,-0.451801 -1.37791,-0.654079 -2.13943,-0.654079 -146.97009,-10e-7 -301.76604,10e-6 -436.858311,0 z"
           transform="matrix(1.0261211,0,0,1.0630406,-15.113761,83.063352)" />
        <g
           id="g5553"
           transform="translate(-8.388496,90.875736)">
          <g
             id="g318">
            <text
               xml:space="preserve"
               style="font-style:normal;font-variant:normal;font-weight:normal;font-stretch:normal;font-size:70.4165px;line-height:1.25;font-family:'The Juke Box';-inkscape-font-specification:'The Juke Box';fill:#000000;stroke-width:1.76041"
               x="41.554955"
               y="133.0717"
               id="text5925"
               transform="scale(0.83735024,1.1942434)"><tspan
                 id="tspan5923"
                 x="41.554955"
                 y="133.0717"
                 style="fill:#000000;stroke-width:1.76041">[                                                  ]</tspan></text>
          </g>
          <text
             xml:space="preserve"
             style="font-size:52.4979px;line-height:1.25;font-family:'Burn The Witch';-inkscape-font-specification:'Burn The Witch';fill:#000000;stroke-width:1.31245"
             x="172.26117"
             y="115.7449"
             id="text19797"
             transform="scale(0.79738922,1.2540927)"><tspan
               id="tspan19795"
               x="172.26117"
               y="115.7449"
               style="font-style:normal;font-variant:normal;font-weight:normal;font-stretch:normal;font-family:Remarcle;-inkscape-font-specification:Remarcle;fill:#000000;stroke-width:1.31245">SIDER</tspan></text>
        </g>
      </g>
    </g>
  </g>
</svg>
